<?xml version="1.0" encoding="iso-8859-1"?>
<!-- Uploaded to: SVG Repo, www.svgrepo.com, Generator: SVG Repo Mixer Tools -->
<svg fill="#000000" height="800px" width="800px" version="1.1" id="Layer_1" xmlns="http://www.w3.org/2000/svg" xmlns:xlink="http://www.w3.org/1999/xlink" 
	 viewBox="0 0 188.988 188.988" xml:space="preserve">
<g>
	<g>
		<g>
			<path d="M30.267,53.487c14.747,0,26.744-11.996,26.744-26.744S45.014,0,30.267,0C15.52,0,3.523,11.996,3.523,26.744
				C3.523,41.492,15.52,53.487,30.267,53.487z M30.267,7.132c10.814,0,19.612,8.798,19.612,19.612
				c0,10.814-8.798,19.612-19.612,19.612c-10.814,0-19.612-8.798-19.612-19.612C10.655,15.93,19.453,7.132,30.267,7.132z"/>
			<path d="M28.484,87.362c0,16.711,12.797,30.309,28.526,30.309h78.448c0.294,0,0.583-0.035,0.864-0.104
				c17.564-1.435,31.229-16.917,31.229-35.554c0-18.411-13.553-33.799-30.701-35.502c-5.438-14.911-20.308-25.117-37.049-25.117
				c-21.087,0-38.341,15.964-39.191,35.897c-1.189-0.158-2.391-0.239-3.599-0.239C41.281,57.053,28.484,70.649,28.484,87.362z
				 M63.172,65.159c1.14,0.371,2.389,0.144,3.325-0.604c0.937-0.747,1.435-1.913,1.329-3.108c-0.078-0.86-0.118-1.73-0.118-2.612
				c0-16.713,14.397-30.309,32.092-30.309c14.47,0,27.212,9.204,30.983,22.382c0.432,1.506,1.795,2.554,3.362,2.584
				c14.488,0.266,26.273,13.06,26.273,28.521c0,15.109-11.066,27.618-25.194,28.481c-0.129,0.007-0.258,0.024-0.385,0.045H57.01
				c-11.798,0-21.395-10.398-21.395-23.178c0-12.78,9.597-23.178,21.395-23.178C59.11,64.185,61.182,64.512,63.172,65.159z"/>
			<path d="M89.188,181.856H14.221c-1.969,0-3.566,1.595-3.566,3.566s1.597,3.566,3.566,3.566h74.967
				c1.969,0,3.566-1.595,3.566-3.566S91.157,181.856,89.188,181.856z"/>
			<path d="M181.899,181.856h-74.967c-1.969,0-3.566,1.595-3.566,3.566s1.597,3.566,3.566,3.566h74.967
				c1.969,0,3.566-1.595,3.566-3.566S183.868,181.856,181.899,181.856z"/>
			<path d="M14.221,153.33H117.69c1.969,0,3.566-1.595,3.566-3.566c0-1.971-1.597-3.566-3.566-3.566H14.221
				c-1.969,0-3.566,1.595-3.566,3.566C10.655,151.735,12.252,153.33,14.221,153.33z"/>
			<path d="M135.458,146.198c-1.969,0-3.566,1.595-3.566,3.566s1.597,3.566,3.566,3.566h46.416c1.969,0,3.566-1.595,3.566-3.566
				s-1.597-3.566-3.566-3.566H135.458z"/>
			<path d="M14.221,171.159h165.847c1.969,0,3.566-1.595,3.566-3.566c0-1.971-1.597-3.566-3.566-3.566H14.221
				c-1.969,0-3.566,1.595-3.566,3.566C10.655,169.564,12.252,171.159,14.221,171.159z"/>
			<path d="M10.655,131.935c0,1.971,1.597,3.566,3.566,3.566h165.847c1.969,0,3.566-1.595,3.566-3.566s-1.597-3.566-3.566-3.566
				H14.221C12.252,128.369,10.655,129.964,10.655,131.935z"/>
		</g>
	</g>
</g>
</svg>